<mxfile host="Electron" agent="Mozilla/5.0 (Windows NT 10.0; Win64; x64) AppleWebKit/537.36 (KHTML, like Gecko) draw.io/28.0.4 Chrome/138.0.7204.97 Electron/37.2.1 Safari/537.36" version="28.0.4" pages="6">
  <diagram id="x1hQ5gUk_NSnBG94oF_G" name="Web">
    <mxGraphModel dx="1621" dy="334" grid="0" gridSize="10" guides="1" tooltips="1" connect="1" arrows="1" fold="1" page="0" pageScale="1" pageWidth="827" pageHeight="1169" background="#ffffff" math="0" shadow="0">
      <root>
        <mxCell id="0" />
        <mxCell id="1" parent="0" />
        <mxCell id="xFqzP3KROUgL5eixGGtV-1" style="edgeStyle=none;rounded=0;orthogonalLoop=1;jettySize=auto;html=1;endArrow=none;endFill=0;entryX=0.07;entryY=0.4;entryDx=0;entryDy=0;entryPerimeter=0;" parent="1" source="xFqzP3KROUgL5eixGGtV-2" target="xFqzP3KROUgL5eixGGtV-5" edge="1">
          <mxGeometry relative="1" as="geometry" />
        </mxCell>
        <mxCell id="xFqzP3KROUgL5eixGGtV-2" value="" style="points=[];aspect=fixed;html=1;align=center;shadow=0;dashed=0;image;image=img/lib/allied_telesis/computer_and_terminals/Personal_Computer_with_Server.svg;" parent="1" vertex="1">
          <mxGeometry x="-191" y="446" width="170" height="170" as="geometry" />
        </mxCell>
        <mxCell id="xFqzP3KROUgL5eixGGtV-3" style="edgeStyle=none;rounded=0;orthogonalLoop=1;jettySize=auto;html=1;entryX=0.88;entryY=0.25;entryDx=0;entryDy=0;entryPerimeter=0;endArrow=none;endFill=0;" parent="1" source="xFqzP3KROUgL5eixGGtV-4" target="xFqzP3KROUgL5eixGGtV-5" edge="1">
          <mxGeometry relative="1" as="geometry" />
        </mxCell>
        <mxCell id="xFqzP3KROUgL5eixGGtV-4" value="" style="points=[];aspect=fixed;html=1;align=center;shadow=0;dashed=0;image;image=img/lib/allied_telesis/computer_and_terminals/Server_Desktop.svg;" parent="1" vertex="1">
          <mxGeometry x="376" y="470" width="117.54" height="149" as="geometry" />
        </mxCell>
        <mxCell id="xFqzP3KROUgL5eixGGtV-5" value="Internet" style="ellipse;shape=cloud;whiteSpace=wrap;html=1;fontSize=25;" parent="1" vertex="1">
          <mxGeometry x="98" y="625" width="182" height="143" as="geometry" />
        </mxCell>
        <mxCell id="xFqzP3KROUgL5eixGGtV-6" style="rounded=0;orthogonalLoop=1;jettySize=auto;html=1;entryX=0.31;entryY=0.8;entryDx=0;entryDy=0;entryPerimeter=0;endArrow=none;endFill=0;" parent="1" source="xFqzP3KROUgL5eixGGtV-7" target="xFqzP3KROUgL5eixGGtV-5" edge="1">
          <mxGeometry relative="1" as="geometry" />
        </mxCell>
        <mxCell id="xFqzP3KROUgL5eixGGtV-7" value="" style="aspect=fixed;pointerEvents=1;shadow=0;dashed=0;html=1;strokeColor=#666666;labelPosition=center;verticalLabelPosition=bottom;verticalAlign=top;align=center;fillColor=#f5f5f5;shape=mxgraph.azure.tablet;fontColor=#333333;" parent="1" vertex="1">
          <mxGeometry x="-193" y="818" width="143.24" height="106" as="geometry" />
        </mxCell>
        <mxCell id="xFqzP3KROUgL5eixGGtV-8" style="edgeStyle=none;rounded=0;orthogonalLoop=1;jettySize=auto;html=1;entryX=0.96;entryY=0.7;entryDx=0;entryDy=0;entryPerimeter=0;endArrow=none;endFill=0;" parent="1" source="xFqzP3KROUgL5eixGGtV-9" target="xFqzP3KROUgL5eixGGtV-5" edge="1">
          <mxGeometry relative="1" as="geometry" />
        </mxCell>
        <mxCell id="xFqzP3KROUgL5eixGGtV-9" value="" style="verticalLabelPosition=bottom;verticalAlign=top;html=1;shadow=0;dashed=0;strokeWidth=1;shape=mxgraph.android.phone2;strokeColor=#666666;fillColor=#f5f5f5;fontColor=#333333;" parent="1" vertex="1">
          <mxGeometry x="425" y="747" width="101" height="196.95" as="geometry" />
        </mxCell>
        <mxCell id="xFqzP3KROUgL5eixGGtV-10" value="https://www.btkakademi.gov.tr/portal/course/algoritma-programlama-ve-veri-yapilarina-giris-12565" style="text;html=1;strokeColor=none;fillColor=none;align=left;verticalAlign=middle;whiteSpace=wrap;rounded=0;fontSize=20;" parent="1" vertex="1">
          <mxGeometry x="-269" y="967" width="903" height="37" as="geometry" />
        </mxCell>
        <mxCell id="xFqzP3KROUgL5eixGGtV-11" value="" style="strokeWidth=2;html=1;shape=mxgraph.flowchart.annotation_2;align=left;labelPosition=right;pointerEvents=1;fontSize=20;rotation=-90;fillColor=#d5e8d4;strokeColor=#82b366;" parent="1" vertex="1">
          <mxGeometry x="-260" y="993" width="25.75" height="45.5" as="geometry" />
        </mxCell>
        <mxCell id="xFqzP3KROUgL5eixGGtV-12" value="Protokol" style="text;html=1;strokeColor=#82b366;fillColor=#d5e8d4;align=center;verticalAlign=middle;whiteSpace=wrap;rounded=0;fontSize=20;" parent="1" vertex="1">
          <mxGeometry x="-297.12" y="1042" width="100" height="37" as="geometry" />
        </mxCell>
        <mxCell id="xFqzP3KROUgL5eixGGtV-13" value="" style="strokeWidth=2;html=1;shape=mxgraph.flowchart.annotation_2;align=left;labelPosition=right;pointerEvents=1;fontSize=20;rotation=-90;fillColor=#fff2cc;strokeColor=#d6b656;" parent="1" vertex="1">
          <mxGeometry x="-120.25" y="910.25" width="25.75" height="211" as="geometry" />
        </mxCell>
        <mxCell id="xFqzP3KROUgL5eixGGtV-14" value="Domain Name" style="text;html=1;strokeColor=#d6b656;fillColor=#fff2cc;align=center;verticalAlign=middle;whiteSpace=wrap;rounded=0;fontSize=20;" parent="1" vertex="1">
          <mxGeometry x="-185" y="1042" width="168" height="37" as="geometry" />
        </mxCell>
        <mxCell id="xFqzP3KROUgL5eixGGtV-15" value="" style="strokeWidth=2;html=1;shape=mxgraph.flowchart.annotation_2;align=left;labelPosition=right;pointerEvents=1;fontSize=20;rotation=-90;fillColor=#e1d5e7;strokeColor=#9673a6;" parent="1" vertex="1">
          <mxGeometry x="287.87" y="721.37" width="25.75" height="588.75" as="geometry" />
        </mxCell>
        <mxCell id="xFqzP3KROUgL5eixGGtV-16" value="Path" style="text;html=1;strokeColor=#9673a6;fillColor=#e1d5e7;align=center;verticalAlign=middle;whiteSpace=wrap;rounded=0;fontSize=20;" parent="1" vertex="1">
          <mxGeometry x="250.74" y="1042" width="100" height="37" as="geometry" />
        </mxCell>
        <mxCell id="xFqzP3KROUgL5eixGGtV-17" value="" style="strokeWidth=2;html=1;shape=mxgraph.flowchart.annotation_2;align=left;labelPosition=right;pointerEvents=1;fontSize=20;rotation=-90;fillColor=#dae8fc;strokeColor=#6c8ebf;" parent="1" vertex="1">
          <mxGeometry x="138.13" y="669.87" width="25.75" height="893" as="geometry" />
        </mxCell>
        <mxCell id="xFqzP3KROUgL5eixGGtV-18" value="URL/URI/Endpoint" style="text;html=1;strokeColor=#6c8ebf;fillColor=#dae8fc;align=center;verticalAlign=middle;whiteSpace=wrap;rounded=0;fontSize=20;" parent="1" vertex="1">
          <mxGeometry x="53.5" y="1138" width="195" height="37" as="geometry" />
        </mxCell>
        <mxCell id="xFqzP3KROUgL5eixGGtV-19" value="Tablet" style="text;html=1;strokeColor=none;fillColor=none;align=center;verticalAlign=middle;whiteSpace=wrap;rounded=0;fontSize=25;" parent="1" vertex="1">
          <mxGeometry x="-191" y="774" width="139" height="32" as="geometry" />
        </mxCell>
        <mxCell id="xFqzP3KROUgL5eixGGtV-20" value="Computer" style="text;html=1;strokeColor=none;fillColor=none;align=center;verticalAlign=middle;whiteSpace=wrap;rounded=0;fontSize=25;" parent="1" vertex="1">
          <mxGeometry x="-191" y="621" width="139" height="32" as="geometry" />
        </mxCell>
        <mxCell id="xFqzP3KROUgL5eixGGtV-21" value="Server" style="text;html=1;strokeColor=none;fillColor=none;align=center;verticalAlign=middle;whiteSpace=wrap;rounded=0;fontSize=25;" parent="1" vertex="1">
          <mxGeometry x="393" y="621" width="139" height="32" as="geometry" />
        </mxCell>
        <mxCell id="xFqzP3KROUgL5eixGGtV-22" value="Smart Phone" style="text;html=1;strokeColor=none;fillColor=none;align=center;verticalAlign=middle;whiteSpace=wrap;rounded=0;fontSize=25;" parent="1" vertex="1">
          <mxGeometry x="393" y="699" width="167" height="32" as="geometry" />
        </mxCell>
      </root>
    </mxGraphModel>
  </diagram>
  <diagram id="YiFeoJwG73T86sa7mMx-" name="MVC">
    <mxGraphModel dx="1298" dy="437" grid="0" gridSize="10" guides="1" tooltips="1" connect="1" arrows="1" fold="1" page="0" pageScale="1" pageWidth="827" pageHeight="1169" math="0" shadow="0">
      <root>
        <mxCell id="Yv0xjgzQahDq-d91A0qY-0" />
        <mxCell id="Yv0xjgzQahDq-d91A0qY-1" parent="Yv0xjgzQahDq-d91A0qY-0" />
        <mxCell id="Yv0xjgzQahDq-d91A0qY-2" value="Model" style="ellipse;whiteSpace=wrap;html=1;aspect=fixed;fontSize=23;fillColor=#f8cecc;strokeColor=#b85450;" parent="Yv0xjgzQahDq-d91A0qY-1" vertex="1">
          <mxGeometry x="107" y="294" width="133" height="133" as="geometry" />
        </mxCell>
        <mxCell id="Yv0xjgzQahDq-d91A0qY-3" value="View" style="ellipse;whiteSpace=wrap;html=1;aspect=fixed;fontSize=23;fillColor=#d5e8d4;strokeColor=#82b366;" parent="Yv0xjgzQahDq-d91A0qY-1" vertex="1">
          <mxGeometry x="-41" y="477" width="133" height="133" as="geometry" />
        </mxCell>
        <mxCell id="Yv0xjgzQahDq-d91A0qY-4" value="Controller" style="ellipse;whiteSpace=wrap;html=1;aspect=fixed;fontSize=23;fillColor=#fff2cc;strokeColor=#d6b656;" parent="Yv0xjgzQahDq-d91A0qY-1" vertex="1">
          <mxGeometry x="258" y="477" width="133" height="133" as="geometry" />
        </mxCell>
        <mxCell id="Yv0xjgzQahDq-d91A0qY-5" value="" style="shape=flexArrow;endArrow=classic;html=1;fontSize=23;fillColor=#d5e8d4;strokeColor=#82b366;" parent="Yv0xjgzQahDq-d91A0qY-1" edge="1">
          <mxGeometry width="50" height="50" relative="1" as="geometry">
            <mxPoint x="65" y="476" as="sourcePoint" />
            <mxPoint x="115" y="426" as="targetPoint" />
          </mxGeometry>
        </mxCell>
        <mxCell id="Yv0xjgzQahDq-d91A0qY-6" value="" style="shape=flexArrow;endArrow=classic;html=1;fontSize=23;fillColor=#f8cecc;strokeColor=#b85450;" parent="Yv0xjgzQahDq-d91A0qY-1" edge="1">
          <mxGeometry width="50" height="50" relative="1" as="geometry">
            <mxPoint x="286" y="476" as="sourcePoint" />
            <mxPoint x="237" y="427" as="targetPoint" />
          </mxGeometry>
        </mxCell>
        <mxCell id="Yv0xjgzQahDq-d91A0qY-7" value="" style="shape=flexArrow;endArrow=classic;html=1;fontSize=23;fillColor=#fff2cc;strokeColor=#d6b656;" parent="Yv0xjgzQahDq-d91A0qY-1" edge="1">
          <mxGeometry width="50" height="50" relative="1" as="geometry">
            <mxPoint x="208.5" y="546" as="sourcePoint" />
            <mxPoint x="138.5" y="546" as="targetPoint" />
          </mxGeometry>
        </mxCell>
      </root>
    </mxGraphModel>
  </diagram>
  <diagram id="4hCb8ymf4gK0KKbU-R4I" name="Request-Response">
    <mxGraphModel dx="1301" dy="633" grid="0" gridSize="10" guides="1" tooltips="1" connect="1" arrows="1" fold="1" page="0" pageScale="1" pageWidth="827" pageHeight="1169" math="0" shadow="0">
      <root>
        <mxCell id="r1OhOh074Xv8hRds0Ce4-0" />
        <mxCell id="r1OhOh074Xv8hRds0Ce4-1" parent="r1OhOh074Xv8hRds0Ce4-0" />
        <mxCell id="r1OhOh074Xv8hRds0Ce4-2" value="@model" style="rounded=0;orthogonalLoop=1;jettySize=auto;html=1;entryX=0;entryY=0.5;entryDx=0;entryDy=0;edgeStyle=isometricEdgeStyle;dashed=1;" parent="r1OhOh074Xv8hRds0Ce4-1" source="r1OhOh074Xv8hRds0Ce4-4" target="r1OhOh074Xv8hRds0Ce4-7" edge="1">
          <mxGeometry relative="1" as="geometry" />
        </mxCell>
        <mxCell id="r1OhOh074Xv8hRds0Ce4-3" style="edgeStyle=isometricEdgeStyle;rounded=0;orthogonalLoop=1;jettySize=auto;html=1;fillColor=#f8cecc;strokeColor=#b85450;" parent="r1OhOh074Xv8hRds0Ce4-1" source="r1OhOh074Xv8hRds0Ce4-4" target="r1OhOh074Xv8hRds0Ce4-10" edge="1">
          <mxGeometry relative="1" as="geometry">
            <Array as="points">
              <mxPoint x="296" y="429" />
            </Array>
          </mxGeometry>
        </mxCell>
        <mxCell id="r1OhOh074Xv8hRds0Ce4-4" value="Models" style="rounded=1;whiteSpace=wrap;html=1;fillColor=#fff2cc;strokeColor=#d6b656;" parent="r1OhOh074Xv8hRds0Ce4-1" vertex="1">
          <mxGeometry x="245" y="281" width="120" height="60" as="geometry" />
        </mxCell>
        <mxCell id="r1OhOh074Xv8hRds0Ce4-5" value="&lt;font color=&quot;#ff3333&quot;&gt;model binding&lt;/font&gt;" style="edgeStyle=isometricEdgeStyle;rounded=0;orthogonalLoop=1;jettySize=auto;html=1;elbow=vertical;fillColor=#f8cecc;strokeColor=#b85450;" parent="r1OhOh074Xv8hRds0Ce4-1" source="r1OhOh074Xv8hRds0Ce4-7" target="r1OhOh074Xv8hRds0Ce4-4" edge="1">
          <mxGeometry relative="1" as="geometry">
            <Array as="points">
              <mxPoint x="313" y="157" />
            </Array>
          </mxGeometry>
        </mxCell>
        <mxCell id="r1OhOh074Xv8hRds0Ce4-6" value="Responses" style="edgeStyle=orthogonalEdgeStyle;rounded=0;orthogonalLoop=1;jettySize=auto;html=1;dashed=1;exitX=0.25;exitY=1;exitDx=0;exitDy=0;entryX=0.21;entryY=0.037;entryDx=0;entryDy=0;entryPerimeter=0;" parent="r1OhOh074Xv8hRds0Ce4-1" source="r1OhOh074Xv8hRds0Ce4-7" target="r1OhOh074Xv8hRds0Ce4-15" edge="1">
          <mxGeometry relative="1" as="geometry" />
        </mxCell>
        <mxCell id="r1OhOh074Xv8hRds0Ce4-7" value="Views" style="rounded=1;whiteSpace=wrap;html=1;fillColor=#d5e8d4;strokeColor=#82b366;" parent="r1OhOh074Xv8hRds0Ce4-1" vertex="1">
          <mxGeometry x="566" y="143" width="120" height="60" as="geometry" />
        </mxCell>
        <mxCell id="r1OhOh074Xv8hRds0Ce4-8" value="" style="rounded=0;orthogonalLoop=1;jettySize=auto;html=1;entryX=1;entryY=0.5;entryDx=0;entryDy=0;edgeStyle=isometricEdgeStyle;elbow=vertical;dashed=1;" parent="r1OhOh074Xv8hRds0Ce4-1" source="r1OhOh074Xv8hRds0Ce4-10" target="r1OhOh074Xv8hRds0Ce4-4" edge="1">
          <mxGeometry relative="1" as="geometry">
            <Array as="points">
              <mxPoint x="558" y="434" />
            </Array>
          </mxGeometry>
        </mxCell>
        <mxCell id="r1OhOh074Xv8hRds0Ce4-9" style="edgeStyle=orthogonalEdgeStyle;rounded=0;orthogonalLoop=1;jettySize=auto;html=1;" parent="r1OhOh074Xv8hRds0Ce4-1" source="r1OhOh074Xv8hRds0Ce4-10" target="r1OhOh074Xv8hRds0Ce4-12" edge="1">
          <mxGeometry relative="1" as="geometry" />
        </mxCell>
        <mxCell id="r1OhOh074Xv8hRds0Ce4-10" value="Controllers" style="rounded=1;whiteSpace=wrap;html=1;fillColor=#f8cecc;strokeColor=#b85450;" parent="r1OhOh074Xv8hRds0Ce4-1" vertex="1">
          <mxGeometry x="304" y="389" width="120" height="60" as="geometry" />
        </mxCell>
        <mxCell id="r1OhOh074Xv8hRds0Ce4-11" style="edgeStyle=orthogonalEdgeStyle;rounded=0;orthogonalLoop=1;jettySize=auto;html=1;entryX=0.5;entryY=1;entryDx=0;entryDy=0;" parent="r1OhOh074Xv8hRds0Ce4-1" source="r1OhOh074Xv8hRds0Ce4-12" target="r1OhOh074Xv8hRds0Ce4-10" edge="1">
          <mxGeometry relative="1" as="geometry" />
        </mxCell>
        <mxCell id="r1OhOh074Xv8hRds0Ce4-12" value="Database" style="shape=cylinder3;whiteSpace=wrap;html=1;boundedLbl=1;backgroundOutline=1;size=15;fontSize=15;fillColor=#fff2cc;strokeColor=#d6b656;" parent="r1OhOh074Xv8hRds0Ce4-1" vertex="1">
          <mxGeometry x="307.5" y="504" width="113" height="80" as="geometry" />
        </mxCell>
        <mxCell id="r1OhOh074Xv8hRds0Ce4-13" value="&lt;font color=&quot;#ff3333&quot;&gt;Reqeusts&lt;/font&gt;" style="edgeStyle=isometricEdgeStyle;rounded=0;orthogonalLoop=1;jettySize=auto;html=1;entryX=0.5;entryY=0;entryDx=0;entryDy=0;fillColor=#f8cecc;strokeColor=#b85450;" parent="r1OhOh074Xv8hRds0Ce4-1" source="r1OhOh074Xv8hRds0Ce4-15" target="r1OhOh074Xv8hRds0Ce4-7" edge="1">
          <mxGeometry x="-0.3897" y="-1" relative="1" as="geometry">
            <Array as="points">
              <mxPoint x="828" y="121" />
            </Array>
            <mxPoint as="offset" />
          </mxGeometry>
        </mxCell>
        <mxCell id="r1OhOh074Xv8hRds0Ce4-14" value="&lt;font color=&quot;#ff3333&quot;&gt;Request&lt;/font&gt;" style="edgeStyle=orthogonalEdgeStyle;rounded=0;orthogonalLoop=1;jettySize=auto;html=1;entryX=0.75;entryY=1;entryDx=0;entryDy=0;fillColor=#f8cecc;strokeColor=#b85450;" parent="r1OhOh074Xv8hRds0Ce4-1" source="r1OhOh074Xv8hRds0Ce4-15" target="r1OhOh074Xv8hRds0Ce4-7" edge="1">
          <mxGeometry relative="1" as="geometry">
            <Array as="points">
              <mxPoint x="656" y="290" />
              <mxPoint x="656" y="290" />
            </Array>
          </mxGeometry>
        </mxCell>
        <mxCell id="r1OhOh074Xv8hRds0Ce4-15" value="" style="pointerEvents=1;shadow=0;dashed=0;html=1;strokeColor=none;labelPosition=center;verticalLabelPosition=bottom;verticalAlign=top;align=center;fillColor=#505050;shape=mxgraph.mscae.intune.user_group" parent="r1OhOh074Xv8hRds0Ce4-1" vertex="1">
          <mxGeometry x="574.5" y="297" width="103" height="75" as="geometry" />
        </mxCell>
        <mxCell id="r1OhOh074Xv8hRds0Ce4-16" value="" style="dashed=0;outlineConnect=0;html=1;align=center;labelPosition=center;verticalLabelPosition=bottom;verticalAlign=top;shape=mxgraph.weblogos.youtube_2;fillColor=#FF2626;gradientColor=#B5171F" parent="r1OhOh074Xv8hRds0Ce4-1" vertex="1">
          <mxGeometry x="613" y="425.2" width="32" height="19.6" as="geometry" />
        </mxCell>
        <mxCell id="r1OhOh074Xv8hRds0Ce4-17" value="@virtual.campus" style="text;whiteSpace=wrap;html=1;" parent="r1OhOh074Xv8hRds0Ce4-1" vertex="1">
          <mxGeometry x="653" y="420.99999999999994" width="92" height="28" as="geometry" />
        </mxCell>
      </root>
    </mxGraphModel>
  </diagram>
  <diagram id="PKXIBU3lFtcQrfoE_VCZ" name="Routing">
    <mxGraphModel dx="524" dy="255" grid="0" gridSize="10" guides="1" tooltips="1" connect="1" arrows="1" fold="1" page="0" pageScale="1" pageWidth="827" pageHeight="1169" math="0" shadow="0">
      <root>
        <mxCell id="RIT4DRGRAmhF20aOdqCp-0" />
        <mxCell id="RIT4DRGRAmhF20aOdqCp-1" parent="RIT4DRGRAmhF20aOdqCp-0" />
        <mxCell id="RIT4DRGRAmhF20aOdqCp-2" value="&lt;font color=&quot;#e6e6e6&quot;&gt;localhost:7226&lt;/font&gt;/&lt;font color=&quot;#004c99&quot;&gt;controller&lt;/font&gt;/&lt;font color=&quot;#cc0000&quot;&gt;action&lt;/font&gt;/&lt;font color=&quot;#ffd966&quot;&gt;id&lt;/font&gt;" style="text;html=1;strokeColor=none;fillColor=none;align=center;verticalAlign=middle;whiteSpace=wrap;rounded=0;" parent="RIT4DRGRAmhF20aOdqCp-1" vertex="1">
          <mxGeometry x="75" y="322" width="214" height="20" as="geometry" />
        </mxCell>
        <mxCell id="RIT4DRGRAmhF20aOdqCp-3" style="rounded=0;orthogonalLoop=1;jettySize=auto;html=1;entryX=0.5;entryY=1;entryDx=0;entryDy=0;fontColor=#004C99;strokeColor=#004C99;" parent="RIT4DRGRAmhF20aOdqCp-1" source="RIT4DRGRAmhF20aOdqCp-4" target="RIT4DRGRAmhF20aOdqCp-2" edge="1">
          <mxGeometry relative="1" as="geometry" />
        </mxCell>
        <mxCell id="RIT4DRGRAmhF20aOdqCp-4" value="First segment" style="text;html=1;strokeColor=#6c8ebf;fillColor=#dae8fc;align=center;verticalAlign=middle;whiteSpace=wrap;rounded=0;fontSize=9;" parent="RIT4DRGRAmhF20aOdqCp-1" vertex="1">
          <mxGeometry x="138" y="403" width="61" height="30" as="geometry" />
        </mxCell>
        <mxCell id="RIT4DRGRAmhF20aOdqCp-5" style="edgeStyle=none;rounded=0;orthogonalLoop=1;jettySize=auto;html=1;entryX=0.784;entryY=0.983;entryDx=0;entryDy=0;entryPerimeter=0;fontSize=9;fontColor=#004C99;strokeColor=#CC0000;" parent="RIT4DRGRAmhF20aOdqCp-1" source="RIT4DRGRAmhF20aOdqCp-6" target="RIT4DRGRAmhF20aOdqCp-2" edge="1">
          <mxGeometry relative="1" as="geometry" />
        </mxCell>
        <mxCell id="RIT4DRGRAmhF20aOdqCp-6" value="Second segment" style="text;html=1;strokeColor=#b85450;fillColor=#f8cecc;align=center;verticalAlign=middle;whiteSpace=wrap;rounded=0;fontSize=9;" parent="RIT4DRGRAmhF20aOdqCp-1" vertex="1">
          <mxGeometry x="206" y="403" width="61" height="30" as="geometry" />
        </mxCell>
        <mxCell id="RIT4DRGRAmhF20aOdqCp-7" style="edgeStyle=none;rounded=0;orthogonalLoop=1;jettySize=auto;html=1;entryX=0.917;entryY=0.924;entryDx=0;entryDy=0;entryPerimeter=0;fontSize=9;fontColor=#CC6600;strokeColor=#d6b656;fillColor=#fff2cc;" parent="RIT4DRGRAmhF20aOdqCp-1" source="RIT4DRGRAmhF20aOdqCp-8" target="RIT4DRGRAmhF20aOdqCp-2" edge="1">
          <mxGeometry relative="1" as="geometry" />
        </mxCell>
        <mxCell id="RIT4DRGRAmhF20aOdqCp-8" value="Third segment" style="text;html=1;strokeColor=#d6b656;fillColor=#fff2cc;align=center;verticalAlign=middle;whiteSpace=wrap;rounded=0;fontSize=9;" parent="RIT4DRGRAmhF20aOdqCp-1" vertex="1">
          <mxGeometry x="275" y="403" width="52" height="30" as="geometry" />
        </mxCell>
        <UserObject label="HttpRequest.RouteValues" link="HttpRequest.RouteValues" id="RIT4DRGRAmhF20aOdqCp-9">
          <mxCell style="rounded=1;whiteSpace=wrap;html=1;fontSize=9;fontColor=#333333;fillColor=#f5f5f5;strokeColor=#666666;" parent="RIT4DRGRAmhF20aOdqCp-1" vertex="1">
            <mxGeometry x="94" y="277" width="180" height="39" as="geometry" />
          </mxCell>
        </UserObject>
      </root>
    </mxGraphModel>
  </diagram>
  <diagram id="Fx4ByXPpnJm2u6IaYrT1" name="PRG">
    <mxGraphModel dx="754" dy="367" grid="0" gridSize="10" guides="1" tooltips="1" connect="1" arrows="1" fold="1" page="0" pageScale="1" pageWidth="827" pageHeight="1169" math="0" shadow="0">
      <root>
        <mxCell id="BmxObAPErjWFYbqVpQqj-0" />
        <mxCell id="BmxObAPErjWFYbqVpQqj-1" parent="BmxObAPErjWFYbqVpQqj-0" />
        <mxCell id="BmxObAPErjWFYbqVpQqj-2" value="GET" style="edgeStyle=orthogonalEdgeStyle;rounded=0;orthogonalLoop=1;jettySize=auto;html=1;entryX=0.5;entryY=0;entryDx=0;entryDy=0;" parent="BmxObAPErjWFYbqVpQqj-1" source="BmxObAPErjWFYbqVpQqj-4" target="BmxObAPErjWFYbqVpQqj-7" edge="1">
          <mxGeometry relative="1" as="geometry">
            <Array as="points">
              <mxPoint x="240" y="150" />
              <mxPoint x="530" y="150" />
            </Array>
          </mxGeometry>
        </mxCell>
        <mxCell id="BmxObAPErjWFYbqVpQqj-3" value="&lt;font color=&quot;#cc0000&quot;&gt;POST&lt;/font&gt;" style="edgeStyle=orthogonalEdgeStyle;rounded=0;orthogonalLoop=1;jettySize=auto;html=1;entryX=0.5;entryY=1;entryDx=0;entryDy=0;exitX=0.5;exitY=1;exitDx=0;exitDy=0;fillColor=#f8cecc;strokeColor=#b85450;fontColor=#FF3333;" parent="BmxObAPErjWFYbqVpQqj-1" source="BmxObAPErjWFYbqVpQqj-4" target="BmxObAPErjWFYbqVpQqj-7" edge="1">
          <mxGeometry relative="1" as="geometry">
            <Array as="points">
              <mxPoint x="240" y="380" />
              <mxPoint x="530" y="380" />
            </Array>
          </mxGeometry>
        </mxCell>
        <mxCell id="BmxObAPErjWFYbqVpQqj-4" value="Client" style="rounded=1;whiteSpace=wrap;html=1;fillColor=#fff2cc;strokeColor=#d6b656;" parent="BmxObAPErjWFYbqVpQqj-1" vertex="1">
          <mxGeometry x="180" y="240" width="120" height="60" as="geometry" />
        </mxCell>
        <mxCell id="BmxObAPErjWFYbqVpQqj-5" value="GET" style="edgeStyle=orthogonalEdgeStyle;rounded=0;orthogonalLoop=1;jettySize=auto;html=1;dashed=1;entryX=1;entryY=0.25;entryDx=0;entryDy=0;exitX=0;exitY=0.25;exitDx=0;exitDy=0;" parent="BmxObAPErjWFYbqVpQqj-1" source="BmxObAPErjWFYbqVpQqj-7" target="BmxObAPErjWFYbqVpQqj-4" edge="1">
          <mxGeometry relative="1" as="geometry" />
        </mxCell>
        <mxCell id="BmxObAPErjWFYbqVpQqj-6" value="&lt;font color=&quot;#cc0000&quot;&gt;POST&lt;/font&gt;" style="edgeStyle=orthogonalEdgeStyle;rounded=0;orthogonalLoop=1;jettySize=auto;html=1;entryX=1;entryY=0.75;entryDx=0;entryDy=0;exitX=0;exitY=0.75;exitDx=0;exitDy=0;fillColor=#f8cecc;strokeColor=#b85450;dashed=1;" parent="BmxObAPErjWFYbqVpQqj-1" source="BmxObAPErjWFYbqVpQqj-7" target="BmxObAPErjWFYbqVpQqj-4" edge="1">
          <mxGeometry relative="1" as="geometry" />
        </mxCell>
        <mxCell id="BmxObAPErjWFYbqVpQqj-7" value="Server" style="rounded=1;whiteSpace=wrap;html=1;fillColor=#d5e8d4;strokeColor=#82b366;" parent="BmxObAPErjWFYbqVpQqj-1" vertex="1">
          <mxGeometry x="470" y="240" width="120" height="60" as="geometry" />
        </mxCell>
        <mxCell id="BmxObAPErjWFYbqVpQqj-8" value="DB" style="shape=cylinder3;whiteSpace=wrap;html=1;boundedLbl=1;backgroundOutline=1;size=15;fillColor=#fff2cc;strokeColor=#d6b656;" parent="BmxObAPErjWFYbqVpQqj-1" vertex="1">
          <mxGeometry x="690" y="195" width="90" height="150" as="geometry" />
        </mxCell>
        <mxCell id="BmxObAPErjWFYbqVpQqj-9" value="" style="shape=flexArrow;endArrow=classic;startArrow=classic;html=1;fillColor=#fff2cc;strokeColor=#d6b656;" parent="BmxObAPErjWFYbqVpQqj-1" edge="1">
          <mxGeometry width="50" height="50" relative="1" as="geometry">
            <mxPoint x="610" y="269.79999999999995" as="sourcePoint" />
            <mxPoint x="670" y="269.79999999999995" as="targetPoint" />
          </mxGeometry>
        </mxCell>
        <mxCell id="BmxObAPErjWFYbqVpQqj-10" value="&lt;span class=&quot;TeknikChar&quot;&gt;&lt;span style=&quot;font-size: 11.0pt ; line-height: 150% ; font-family: &amp;quot;segoe ui&amp;quot; , sans-serif&quot;&gt;Post&lt;/span&gt;&lt;/span&gt;&lt;span style=&quot;font-size: 11.0pt ; line-height: 150% ; font-family: &amp;quot;segoe ui&amp;quot; , sans-serif&quot;&gt;-&lt;/span&gt;&lt;span class=&quot;TeknikChar&quot;&gt;&lt;span style=&quot;font-size: 11.0pt ; line-height: 150% ; font-family: &amp;quot;segoe ui&amp;quot; , sans-serif&quot;&gt;Redirect&lt;/span&gt;&lt;/span&gt;&lt;span style=&quot;font-size: 11.0pt ; line-height: 150% ; font-family: &amp;quot;segoe ui&amp;quot; , sans-serif&quot;&gt;-&lt;/span&gt;&lt;span class=&quot;TeknikChar&quot;&gt;&lt;span style=&quot;font-size: 11.0pt ; line-height: 150% ; font-family: &amp;quot;segoe ui&amp;quot; , sans-serif&quot;&gt;Get&lt;/span&gt;&lt;/span&gt;&lt;span style=&quot;font-size: 11.0pt ; line-height: 150% ; font-family: &amp;quot;segoe ui&amp;quot; , sans-serif&quot;&gt; (&lt;/span&gt;&lt;span class=&quot;TeknikChar&quot;&gt;&lt;span style=&quot;font-size: 11.0pt ; line-height: 150% ; font-family: &amp;quot;segoe ui&amp;quot; , sans-serif&quot;&gt;PRG&lt;/span&gt;&lt;/span&gt;&lt;span style=&quot;font-size: 11.0pt ; line-height: 150% ; font-family: &amp;quot;segoe ui&amp;quot; , sans-serif&quot;&gt;) &lt;/span&gt;&lt;span class=&quot;TeknikChar&quot;&gt;&lt;span style=&quot;font-size: 11.0pt ; line-height: 150% ; font-family: &amp;quot;segoe ui&amp;quot; , sans-serif&quot;&gt;pattern&lt;/span&gt;&lt;/span&gt;&lt;span style=&quot;font-size: 11.0pt ; line-height: 150% ; font-family: &amp;quot;segoe ui&amp;quot; , sans-serif&quot;&gt; &lt;/span&gt;" style="text;whiteSpace=wrap;html=1;align=center;fillColor=#f5f5f5;strokeColor=#666666;fontColor=#333333;" parent="BmxObAPErjWFYbqVpQqj-1" vertex="1">
          <mxGeometry x="241" y="408" width="292" height="36" as="geometry" />
        </mxCell>
      </root>
    </mxGraphModel>
  </diagram>
  <diagram id="qfri3r4IQUOGeVIWGA_E" name="Repository">
    <mxGraphModel dx="1221" dy="1134" grid="0" gridSize="10" guides="1" tooltips="1" connect="1" arrows="1" fold="1" page="0" pageScale="1" pageWidth="827" pageHeight="1169" math="0" shadow="0">
      <root>
        <mxCell id="LzqfO0SqHvp-e6wiSreN-0" />
        <mxCell id="LzqfO0SqHvp-e6wiSreN-1" parent="LzqfO0SqHvp-e6wiSreN-0" />
        <mxCell id="LzqfO0SqHvp-e6wiSreN-2" style="edgeStyle=orthogonalEdgeStyle;rounded=0;orthogonalLoop=1;jettySize=auto;html=1;" parent="LzqfO0SqHvp-e6wiSreN-1" source="LzqfO0SqHvp-e6wiSreN-3" target="LzqfO0SqHvp-e6wiSreN-4" edge="1">
          <mxGeometry relative="1" as="geometry" />
        </mxCell>
        <mxCell id="LzqfO0SqHvp-e6wiSreN-3" value="Controller" style="rounded=1;whiteSpace=wrap;html=1;" parent="LzqfO0SqHvp-e6wiSreN-1" vertex="1">
          <mxGeometry x="88" y="157" width="120" height="60" as="geometry" />
        </mxCell>
        <mxCell id="LzqfO0SqHvp-e6wiSreN-4" value="Database" style="shape=cylinder3;whiteSpace=wrap;html=1;boundedLbl=1;backgroundOutline=1;size=15;fillColor=#fff2cc;strokeColor=#d6b656;" parent="LzqfO0SqHvp-e6wiSreN-1" vertex="1">
          <mxGeometry x="118" y="380" width="60" height="80" as="geometry" />
        </mxCell>
        <mxCell id="LzqfO0SqHvp-e6wiSreN-5" value="DbContext" style="rounded=1;whiteSpace=wrap;html=1;" parent="LzqfO0SqHvp-e6wiSreN-1" vertex="1">
          <mxGeometry x="88" y="265" width="120" height="60" as="geometry" />
        </mxCell>
        <mxCell id="gYB5FKO3KlbFGk1Epi3G-0" value="IRepositoryManager" style="edgeStyle=orthogonalEdgeStyle;rounded=0;orthogonalLoop=1;jettySize=auto;html=1;entryX=0.5;entryY=1;entryDx=0;entryDy=0;" parent="LzqfO0SqHvp-e6wiSreN-1" source="gYB5FKO3KlbFGk1Epi3G-1" target="gYB5FKO3KlbFGk1Epi3G-4" edge="1">
          <mxGeometry relative="1" as="geometry" />
        </mxCell>
        <mxCell id="gYB5FKO3KlbFGk1Epi3G-1" value="" style="rounded=1;whiteSpace=wrap;html=1;fillColor=#f5f5f5;strokeColor=#666666;fontColor=#333333;arcSize=5;" parent="LzqfO0SqHvp-e6wiSreN-1" vertex="1">
          <mxGeometry x="471" y="45" width="366" height="321" as="geometry" />
        </mxCell>
        <mxCell id="gYB5FKO3KlbFGk1Epi3G-2" value="" style="rounded=1;whiteSpace=wrap;html=1;arcSize=6;fillColor=#fa6800;fontColor=#000000;strokeColor=#C73500;" parent="LzqfO0SqHvp-e6wiSreN-1" vertex="1">
          <mxGeometry x="491" y="153" width="330" height="90" as="geometry" />
        </mxCell>
        <mxCell id="gYB5FKO3KlbFGk1Epi3G-3" style="edgeStyle=orthogonalEdgeStyle;rounded=0;orthogonalLoop=1;jettySize=auto;html=1;entryX=0.5;entryY=0;entryDx=0;entryDy=0;entryPerimeter=0;" parent="LzqfO0SqHvp-e6wiSreN-1" source="gYB5FKO3KlbFGk1Epi3G-1" target="gYB5FKO3KlbFGk1Epi3G-5" edge="1">
          <mxGeometry relative="1" as="geometry" />
        </mxCell>
        <mxCell id="gYB5FKO3KlbFGk1Epi3G-4" value="Controller" style="rounded=1;whiteSpace=wrap;html=1;" parent="LzqfO0SqHvp-e6wiSreN-1" vertex="1">
          <mxGeometry x="589.5" y="-79" width="129" height="60" as="geometry" />
        </mxCell>
        <mxCell id="gYB5FKO3KlbFGk1Epi3G-5" value="Database" style="shape=cylinder3;whiteSpace=wrap;html=1;boundedLbl=1;backgroundOutline=1;size=15;fillColor=#e3c800;strokeColor=#B09500;fontColor=#000000;" parent="LzqfO0SqHvp-e6wiSreN-1" vertex="1">
          <mxGeometry x="624" y="391" width="60" height="80" as="geometry" />
        </mxCell>
        <mxCell id="gYB5FKO3KlbFGk1Epi3G-6" value="IProductRepository" style="rounded=1;whiteSpace=wrap;html=1;fillColor=#f0a30a;strokeColor=#BD7000;fontColor=#000000;" parent="LzqfO0SqHvp-e6wiSreN-1" vertex="1">
          <mxGeometry x="504" y="168" width="147" height="60" as="geometry" />
        </mxCell>
        <mxCell id="gYB5FKO3KlbFGk1Epi3G-7" value="ICategoryRepository" style="rounded=1;whiteSpace=wrap;html=1;fillColor=#f0a30a;strokeColor=#BD7000;fontColor=#000000;" parent="LzqfO0SqHvp-e6wiSreN-1" vertex="1">
          <mxGeometry x="661" y="168" width="143" height="60" as="geometry" />
        </mxCell>
        <mxCell id="gYB5FKO3KlbFGk1Epi3G-8" value="Unit of Work" style="text;html=1;strokeColor=#006EAF;fillColor=#1ba1e2;align=center;verticalAlign=middle;whiteSpace=wrap;rounded=0;fontColor=#ffffff;" parent="LzqfO0SqHvp-e6wiSreN-1" vertex="1">
          <mxGeometry x="491" y="55" width="330" height="20" as="geometry" />
        </mxCell>
        <mxCell id="gYB5FKO3KlbFGk1Epi3G-9" value="DbContext" style="rounded=1;whiteSpace=wrap;html=1;arcSize=6;" parent="LzqfO0SqHvp-e6wiSreN-1" vertex="1">
          <mxGeometry x="491" y="296" width="330" height="40" as="geometry" />
        </mxCell>
        <mxCell id="gYB5FKO3KlbFGk1Epi3G-10" value="IRepositoryManager" style="rounded=1;whiteSpace=wrap;html=1;arcSize=6;fillColor=#1ba1e2;strokeColor=#006EAF;fontColor=#ffffff;" parent="LzqfO0SqHvp-e6wiSreN-1" vertex="1">
          <mxGeometry x="491" y="93" width="330" height="47" as="geometry" />
        </mxCell>
        <mxCell id="gYB5FKO3KlbFGk1Epi3G-11" value="IRepositoryBase" style="rounded=1;whiteSpace=wrap;html=1;arcSize=6;" parent="LzqfO0SqHvp-e6wiSreN-1" vertex="1">
          <mxGeometry x="491" y="248" width="330" height="40" as="geometry" />
        </mxCell>
        <mxCell id="LbaZjKNaB8aSuf17A6Ab-0" value="IRepositoryManager" style="edgeStyle=orthogonalEdgeStyle;rounded=0;orthogonalLoop=1;jettySize=auto;html=1;entryX=0.5;entryY=1;entryDx=0;entryDy=0;" parent="LzqfO0SqHvp-e6wiSreN-1" source="LbaZjKNaB8aSuf17A6Ab-1" target="LbaZjKNaB8aSuf17A6Ab-12" edge="1">
          <mxGeometry relative="1" as="geometry" />
        </mxCell>
        <mxCell id="LbaZjKNaB8aSuf17A6Ab-1" value="" style="rounded=1;whiteSpace=wrap;html=1;fillColor=#f5f5f5;strokeColor=#666666;fontColor=#333333;arcSize=5;" parent="LzqfO0SqHvp-e6wiSreN-1" vertex="1">
          <mxGeometry x="985" y="45" width="366" height="313" as="geometry" />
        </mxCell>
        <mxCell id="LbaZjKNaB8aSuf17A6Ab-2" value="" style="rounded=1;whiteSpace=wrap;html=1;arcSize=6;fillColor=#fa6800;fontColor=#000000;strokeColor=#C73500;" parent="LzqfO0SqHvp-e6wiSreN-1" vertex="1">
          <mxGeometry x="1005" y="146" width="330" height="90" as="geometry" />
        </mxCell>
        <mxCell id="LbaZjKNaB8aSuf17A6Ab-3" style="edgeStyle=orthogonalEdgeStyle;rounded=0;orthogonalLoop=1;jettySize=auto;html=1;entryX=0.5;entryY=0;entryDx=0;entryDy=0;entryPerimeter=0;" parent="LzqfO0SqHvp-e6wiSreN-1" source="LbaZjKNaB8aSuf17A6Ab-1" target="LbaZjKNaB8aSuf17A6Ab-5" edge="1">
          <mxGeometry relative="1" as="geometry" />
        </mxCell>
        <mxCell id="LbaZjKNaB8aSuf17A6Ab-4" value="Controller" style="rounded=1;whiteSpace=wrap;html=1;fillColor=#60a917;fontColor=#ffffff;strokeColor=#2D7600;" parent="LzqfO0SqHvp-e6wiSreN-1" vertex="1">
          <mxGeometry x="1103.5" y="-394" width="129" height="60" as="geometry" />
        </mxCell>
        <mxCell id="LbaZjKNaB8aSuf17A6Ab-5" value="Database" style="shape=cylinder3;whiteSpace=wrap;html=1;boundedLbl=1;backgroundOutline=1;size=15;fillColor=#e3c800;strokeColor=#B09500;fontColor=#000000;" parent="LzqfO0SqHvp-e6wiSreN-1" vertex="1">
          <mxGeometry x="1138" y="389" width="60" height="80" as="geometry" />
        </mxCell>
        <mxCell id="LbaZjKNaB8aSuf17A6Ab-6" value="IProductRepository" style="rounded=1;whiteSpace=wrap;html=1;fillColor=#f0a30a;strokeColor=#BD7000;fontColor=#000000;" parent="LzqfO0SqHvp-e6wiSreN-1" vertex="1">
          <mxGeometry x="1018" y="160" width="147" height="60" as="geometry" />
        </mxCell>
        <mxCell id="LbaZjKNaB8aSuf17A6Ab-7" value="ICategoryRepository" style="rounded=1;whiteSpace=wrap;html=1;fillColor=#f0a30a;strokeColor=#BD7000;fontColor=#000000;" parent="LzqfO0SqHvp-e6wiSreN-1" vertex="1">
          <mxGeometry x="1175" y="161" width="143" height="60" as="geometry" />
        </mxCell>
        <mxCell id="LbaZjKNaB8aSuf17A6Ab-8" value="Unit of Work" style="text;html=1;strokeColor=#006EAF;fillColor=#1ba1e2;align=center;verticalAlign=middle;whiteSpace=wrap;rounded=0;fontColor=#ffffff;" parent="LzqfO0SqHvp-e6wiSreN-1" vertex="1">
          <mxGeometry x="1005" y="57" width="330" height="20" as="geometry" />
        </mxCell>
        <mxCell id="LbaZjKNaB8aSuf17A6Ab-9" value="DbContext" style="rounded=1;whiteSpace=wrap;html=1;arcSize=6;" parent="LzqfO0SqHvp-e6wiSreN-1" vertex="1">
          <mxGeometry x="1005" y="296" width="330" height="40" as="geometry" />
        </mxCell>
        <mxCell id="LbaZjKNaB8aSuf17A6Ab-10" value="RepositoryManager" style="rounded=1;whiteSpace=wrap;html=1;arcSize=6;fillColor=#1ba1e2;strokeColor=#006EAF;fontColor=#ffffff;" parent="LzqfO0SqHvp-e6wiSreN-1" vertex="1">
          <mxGeometry x="1005" y="86" width="330" height="47" as="geometry" />
        </mxCell>
        <mxCell id="LbaZjKNaB8aSuf17A6Ab-11" value="IServiceManager" style="edgeStyle=orthogonalEdgeStyle;rounded=0;orthogonalLoop=1;jettySize=auto;html=1;entryX=0.5;entryY=1.014;entryDx=0;entryDy=0;entryPerimeter=0;" parent="LzqfO0SqHvp-e6wiSreN-1" source="LbaZjKNaB8aSuf17A6Ab-12" target="LbaZjKNaB8aSuf17A6Ab-4" edge="1">
          <mxGeometry relative="1" as="geometry" />
        </mxCell>
        <mxCell id="LbaZjKNaB8aSuf17A6Ab-12" value="" style="rounded=1;whiteSpace=wrap;html=1;fillColor=#f5f5f5;strokeColor=#666666;fontColor=#333333;arcSize=5;" parent="LzqfO0SqHvp-e6wiSreN-1" vertex="1">
          <mxGeometry x="984.9999999999999" y="-282" width="366" height="270" as="geometry" />
        </mxCell>
        <mxCell id="LbaZjKNaB8aSuf17A6Ab-13" value="" style="rounded=1;whiteSpace=wrap;html=1;arcSize=6;fillColor=#fa6800;fontColor=#000000;strokeColor=#C73500;" parent="LzqfO0SqHvp-e6wiSreN-1" vertex="1">
          <mxGeometry x="1005" y="-174" width="330" height="90" as="geometry" />
        </mxCell>
        <mxCell id="LbaZjKNaB8aSuf17A6Ab-14" value="IProductService" style="rounded=1;whiteSpace=wrap;html=1;fillColor=#f0a30a;strokeColor=#BD7000;fontColor=#000000;" parent="LzqfO0SqHvp-e6wiSreN-1" vertex="1">
          <mxGeometry x="1018" y="-159" width="147" height="60" as="geometry" />
        </mxCell>
        <mxCell id="LbaZjKNaB8aSuf17A6Ab-15" value="ICategoryService" style="rounded=1;whiteSpace=wrap;html=1;fillColor=#f0a30a;strokeColor=#BD7000;fontColor=#000000;" parent="LzqfO0SqHvp-e6wiSreN-1" vertex="1">
          <mxGeometry x="1175" y="-159" width="143" height="60" as="geometry" />
        </mxCell>
        <mxCell id="LbaZjKNaB8aSuf17A6Ab-16" value="Unit of Work" style="text;html=1;strokeColor=#006EAF;fillColor=#1ba1e2;align=center;verticalAlign=middle;whiteSpace=wrap;rounded=0;fontColor=#ffffff;" parent="LzqfO0SqHvp-e6wiSreN-1" vertex="1">
          <mxGeometry x="1005" y="-272" width="330" height="20" as="geometry" />
        </mxCell>
        <mxCell id="LbaZjKNaB8aSuf17A6Ab-17" value="IRepositoryManager" style="rounded=1;whiteSpace=wrap;html=1;arcSize=6;fillColor=#647687;strokeColor=#314354;fontColor=#ffffff;" parent="LzqfO0SqHvp-e6wiSreN-1" vertex="1">
          <mxGeometry x="1005" y="-74" width="330" height="40" as="geometry" />
        </mxCell>
        <mxCell id="LbaZjKNaB8aSuf17A6Ab-18" value="IServiceManager" style="rounded=1;whiteSpace=wrap;html=1;arcSize=6;fillColor=#1ba1e2;strokeColor=#006EAF;fontColor=#ffffff;" parent="LzqfO0SqHvp-e6wiSreN-1" vertex="1">
          <mxGeometry x="1005" y="-234" width="330" height="47" as="geometry" />
        </mxCell>
        <mxCell id="lZdpDp-ujZ_iwgsQMruz-0" value="IRepositoryBase" style="rounded=1;whiteSpace=wrap;html=1;arcSize=6;" parent="LzqfO0SqHvp-e6wiSreN-1" vertex="1">
          <mxGeometry x="1006" y="248" width="330" height="40" as="geometry" />
        </mxCell>
      </root>
    </mxGraphModel>
  </diagram>
</mxfile>
